<?xml version="1.0" encoding="UTF-8" standalone="no"?>
<!DOCTYPE svg PUBLIC "-//W3C//DTD SVG 1.1//EN" "http://www.w3.org/Graphics/SVG/1.1/DTD/svg11.dtd">
<svg width="100%" height="100%" viewBox="0 0 2956 942" version="1.1" xmlns="http://www.w3.org/2000/svg" xmlns:xlink="http://www.w3.org/1999/xlink" xml:space="preserve" xmlns:serif="http://www.serif.com/" style="fill-rule:evenodd;clip-rule:evenodd;stroke-linecap:round;stroke-linejoin:round;stroke-miterlimit:1.5;">
    <g transform="matrix(1.16341,0,0,1.16341,-291.078,-731.712)">
        <path d="M401,1219C401,1219 380.686,1216.46 365,1201C349.314,1185.54 265.801,1110.31 260,1098C254.199,1085.69 245.739,1065.27 253,1048C260.261,1030.73 265.03,1024.45 273,1019C280.97,1013.55 285.146,1010.92 287,1008C288.854,1005.08 322,776 322,776C322,776 325.308,767.69 325,760C324.692,752.31 316.081,745.497 313,735C309.919,724.503 302.164,713.723 308,693C313.836,672.277 326.025,655.482 337,652C347.975,648.518 353,647 353,647L519,646C519,646 523.992,646.611 532,653C540.008,659.389 547.281,673.114 550,682C552.719,690.886 569,721 569,721L572,721C572,721 582.092,693.874 587,687C591.908,680.126 616.309,637.87 665,634C713.691,630.13 745.927,653.064 754,670C762.073,686.936 778.694,770.791 785,769C791.306,767.209 838.35,744.924 886,750C933.65,755.076 986.865,783.591 1003,817C1019.13,850.409 1020,862 1020,862L1180,865L1226,762C1226,762 1227.85,761.241 1227,755C1226.15,748.759 1211.54,732.841 1215,706C1218.46,679.159 1220.61,670.56 1233,660C1245.39,649.44 1252.97,647.181 1263,646C1273.03,644.819 1398,644 1398,644C1398,644 1416.02,643.416 1433,655C1449.98,666.584 1462.35,683.6 1466,695C1469.65,706.4 1491,784 1491,784C1491,784 1488.81,717.997 1495,700C1501.19,682.003 1509.49,667.267 1520,662C1530.51,656.733 1580.54,644.926 1602,639C1623.46,633.074 1658.4,620.213 1682,638C1705.6,655.787 1709.88,679.231 1708,705C1706.12,730.769 1701,752 1701,752C1701,752 1733.59,744.687 1757,753C1780.41,761.313 1806.28,774.555 1813,784C1819.72,793.445 1823,786 1823,786C1823,786 1808.47,751.829 1818,720C1827.53,688.171 1831.11,673.221 1854,657C1876.89,640.779 1887.26,631.247 1921,633C1954.74,634.753 1976.88,654.093 1981,655C1985.12,655.907 2065,635 2065,635C2065,635 2087.67,628.896 2110,637C2132.33,645.104 2134.87,654.859 2138,657C2141.13,659.141 2142.72,658.373 2145,656C2147.28,653.627 2165.05,641.174 2181,638C2196.95,634.826 2231.12,625.713 2264,649C2296.88,672.287 2297.22,703.43 2298,711C2298.78,718.57 2299.99,725.711 2306,719C2312.01,712.289 2337.46,677.545 2378,672C2418.54,666.455 2433.38,676.523 2441,688C2448.62,699.477 2453.63,704.202 2452,720C2450.37,735.798 2450,757 2450,757L2573,757C2573,757 2587.69,756.4 2600,762C2612.31,767.6 2613,770 2613,770C2613,770 2615.62,769.573 2626,763C2636.38,756.427 2644,756 2644,756L2742,757C2742,757 2766.74,757.261 2779,777C2791.26,796.739 2790.79,812.389 2790,823C2789.21,833.611 2775.88,851.081 2768,859C2760.12,866.919 2757.9,866.25 2747,890C2736.1,913.75 2623,1177 2623,1177C2623,1177 2649.11,1223.42 2650,1246C2650.89,1268.58 2653.95,1323.82 2632,1353C2610.05,1382.18 2579.73,1419.08 2545,1428C2510.27,1436.92 2507,1438 2507,1438L542,1438C542,1438 466.718,1430.97 433,1383C399.282,1335.03 389.571,1319.34 389,1284C388.429,1248.66 401,1219 401,1219Z" style="fill:rgb(43,14,33);fill-opacity:0.99;"/>
        <g transform="matrix(1.00271,0,0,1.02778,3.87059,-65.8333)">
            <path d="M2626,1308C2626,1377.54 2568.13,1434 2496.85,1434L545.149,1434C473.87,1434 416,1377.54 416,1308C416,1238.46 473.87,1182 545.149,1182L2496.85,1182C2568.13,1182 2626,1238.46 2626,1308Z" style="fill:rgb(176,18,80);stroke:rgb(252,33,109);stroke-width:0.85px;"/>
        </g>
        <g transform="matrix(1.00258,0,0,1.24238,-139.169,367.46)">
            <ellipse cx="2623.5" cy="617" rx="98.5" ry="66" style="fill:rgb(43,14,33);"/>
        </g>
        <g id="l2VOo7jiEiZaiaxQtZj2LZu" transform="matrix(0.1,0,0,0.1,0,0)">
            <g>
                <g id="l2VOo7jiEiZaiaxQtZj2LZu1" serif:id="l2VOo7jiEiZaiaxQtZj2LZu">
                    <g>
                        <path id="pAEv5MD2u" d="M6588,13325C6586,13322 6558,13315 6527,13310C6496,13304 6459,13293 6445,13286C6396,13261 6320,13181 6320,13156C6320,13148 6316,13139 6311,13136C6287,13120 6279,13003 6282,12670L6285,12325L6513,12319L6507,12607C6497,13036 6514,13100 6633,13100C6697,13100 6737,13073 6746,13023C6750,13002 6753,12837 6754,12655L6755,12325L6867,12322C6968,12320 6980,12321 6989,12338C6995,12349 6997,12360 6994,12362C6992,12365 6987,12533 6984,12736C6979,13073 6976,13109 6959,13148C6937,13196 6891,13246 6840,13277C6784,13311 6608,13345 6588,13325Z" style="fill:rgb(255,249,232);fill-rule:nonzero;"/>
                        <path id="pwJ1WYTzx" d="M15794,13310C15703,13285 15658,13253 15592,13165C15580,13149 15544,13049 15531,12997C15517,12937 15517,12690 15531,12636C15568,12496 15583,12465 15649,12400C15738,12313 15853,12284 16009,12311C16096,12326 16148,12351 16197,12403C16242,12450 16260,12493 16260,12555C16260,12615 16243,12626 16153,12622C16109,12621 16080,12624 16080,12630C16080,12653 16050,12638 16044,12613C16034,12563 16018,12541 15978,12522C15944,12506 15931,12505 15895,12515C15822,12533 15799,12562 15770,12669C15745,12764 15739,12800 15750,12800C15756,12800 15759,12827 15758,12863C15756,12943 15783,13033 15822,13074C15849,13102 15857,13105 15916,13105C15998,13105 16026,13081 16047,12990C16054,12956 16059,12925 16056,12923C16054,12920 16018,12915 15978,12912L15905,12905L15899,12840C15889,12737 15872,12745 16083,12742L16268,12740L16276,12807C16282,12868 16277,13008 16265,13087C16263,13104 16251,13136 16240,13157C16217,13199 16134,13280 16113,13280C16106,13280 16100,13284 16100,13288C16100,13293 16094,13297 16088,13297C16081,13298 16050,13304 16020,13310C15937,13329 15862,13329 15794,13310Z" style="fill:rgb(255,249,232);fill-rule:nonzero;"/>
                        <path id="p0DBGbknX" d="M5592,13308C5575,13291 5575,12349 5592,12332C5601,12323 5677,12320 5871,12320C6175,12320 6150,12311 6150,12416C6150,12517 6146,12520 6035,12520C5983,12520 5938,12524 5935,12530C5932,12536 5905,12540 5875,12540C5823,12540 5821,12541 5815,12571C5811,12588 5811,12633 5815,12671L5822,12740L6097,12740L6104,12786C6107,12811 6107,12856 6104,12886L6097,12939L5815,12945L5806,13123L5797,13300L5739,13300C5706,13300 5680,13304 5680,13310C5680,13324 5606,13322 5592,13308Z" style="fill:rgb(255,249,232);fill-rule:nonzero;"/>
                        <path id="pAeeoo27U" d="M7173,13305C7163,13294 7160,13180 7160,12805L7160,12320L7278,12320L7395,12321L7448,12428C7476,12487 7500,12541 7500,12548C7500,12554 7505,12560 7510,12560C7516,12560 7520,12566 7520,12573C7520,12591 7544,12640 7553,12640C7557,12640 7560,12649 7560,12660C7560,12671 7565,12680 7570,12680C7576,12680 7580,12686 7580,12693C7580,12700 7593,12732 7610,12765C7626,12798 7640,12833 7640,12842C7640,12851 7645,12862 7650,12865C7657,12869 7660,12781 7660,12607C7660,12393 7663,12340 7674,12331C7683,12323 7722,12320 7786,12322L7885,12325L7887,12804C7890,13375 7904,13322 7753,13318L7655,13315L7549,13100C7490,12982 7431,12859 7416,12827C7402,12795 7386,12771 7381,12774C7376,12777 7375,12851 7379,12937C7382,13024 7385,13140 7385,13195C7385,13291 7384,13295 7363,13298C7350,13300 7340,13306 7340,13311C7340,13326 7187,13321 7173,13305Z" style="fill:rgb(255,249,232);fill-rule:nonzero;"/>
                        <path id="pCySgUtGo" d="M8454,13309C8446,13295 8448,12342 8456,12329C8459,12324 8549,12320 8657,12320C8900,12320 8965,12335 9036,12405C9060,12430 9080,12456 9080,12465C9080,12473 9084,12480 9089,12480C9104,12480 9113,12540 9116,12655C9118,12759 9116,12769 9089,12827C9071,12864 9043,12903 9018,12924C8983,12955 8969,12960 8928,12960C8902,12960 8880,12965 8880,12970C8880,12976 8840,12980 8781,12980L8682,12980L8675,13105C8671,13174 8670,13246 8673,13265C8678,13293 8675,13302 8660,13310C8634,13324 8463,13323 8454,13309ZM8603,13253C8590,13251 8570,13251 8558,13253C8545,13255 8555,13257 8580,13257C8605,13257 8615,13255 8603,13253ZM8490,12828C8490,12646 8488,12499 8485,12501C8483,12504 8480,12639 8480,12801C8479,13163 8479,13160 8485,13160C8488,13160 8490,13011 8490,12828ZM8790,12770C8860,12757 8877,12740 8885,12676C8894,12610 8873,12554 8834,12540C8792,12524 8687,12519 8678,12533C8669,12547 8668,12725 8676,12758C8683,12783 8706,12786 8790,12770Z" style="fill:rgb(255,249,232);fill-rule:nonzero;"/>
                        <path id="poG3KIopm" d="M9150,13305C9138,13290 9139,13283 9222,12970C9238,12907 9254,12843 9257,12827C9260,12812 9266,12797 9271,12794C9276,12791 9280,12780 9280,12768C9280,12750 9332,12557 9347,12520C9350,12512 9354,12496 9356,12485C9364,12436 9384,12353 9392,12337C9400,12321 9415,12320 9548,12322L9695,12325L9702,12360C9705,12379 9713,12411 9719,12430C9740,12504 9752,12546 9757,12570C9759,12584 9775,12638 9792,12690C9810,12748 9820,12795 9816,12812C9812,12832 9815,12840 9824,12840C9832,12840 9840,12852 9843,12868C9846,12883 9853,12911 9858,12930C9918,13138 9940,13230 9940,13265L9940,13300L9875,13300C9838,13300 9810,13304 9810,13310C9810,13322 9741,13323 9722,13312C9709,13303 9680,13204 9680,13165C9680,13143 9676,13140 9641,13140C9619,13140 9599,13135 9597,13128C9593,13118 9591,13118 9591,13128C9590,13136 9566,13140 9505,13140C9409,13140 9414,13136 9391,13235C9384,13262 9377,13287 9374,13290C9371,13293 9326,13297 9274,13298C9222,13300 9180,13306 9180,13311C9180,13325 9164,13322 9150,13305ZM9553,12940L9623,12940L9615,12903C9605,12849 9593,12792 9580,12740C9574,12715 9567,12674 9563,12648C9560,12621 9554,12600 9551,12600C9539,12600 9513,12672 9502,12735C9496,12768 9487,12815 9481,12840C9475,12865 9467,12903 9464,12925C9459,12958 9460,12963 9471,12953C9479,12945 9512,12940 9553,12940Z" style="fill:rgb(255,249,232);fill-rule:nonzero;"/>
                        <path id="pvNm805EY" d="M10080,13310C10080,13305 10071,13300 10060,13300C10040,13300 10040,13294 10043,12813L10045,12325L10250,12322C10503,12319 10559,12329 10627,12396C10704,12471 10736,12631 10700,12763C10676,12849 10649,12893 10602,12921C10582,12933 10564,12944 10562,12946C10560,12947 10569,12965 10581,12986C10593,13008 10621,13059 10643,13100C10665,13141 10692,13187 10702,13202C10714,13219 10720,13242 10718,13262C10715,13294 10713,13295 10668,13298C10641,13300 10620,13305 10620,13311C10620,13316 10592,13320 10558,13320L10495,13319L10470,13277C10456,13254 10416,13178 10381,13108C10333,13010 10314,12980 10299,12980C10277,12980 10278,12969 10280,13135C10281,13271 10277,13300 10254,13300C10246,13300 10240,13305 10240,13310C10240,13316 10207,13320 10160,13320C10113,13320 10080,13316 10080,13310ZM10090,12774C10090,12760 10086,12751 10081,12754C10076,12757 10074,12769 10077,12780C10084,12808 10090,12805 10090,12774ZM10468,12705C10501,12632 10469,12548 10403,12535C10350,12524 10270,12520 10271,12528C10272,12532 10271,12540 10270,12545C10266,12563 10271,12704 10276,12732C10281,12757 10286,12759 10333,12762C10396,12766 10451,12743 10468,12705ZM10087,12663C10085,12647 10083,12658 10083,12685C10083,12713 10085,12725 10087,12713C10089,12700 10089,12678 10087,12663Z" style="fill:rgb(255,249,232);fill-rule:nonzero;"/>
                        <path id="p10BaoInef" d="M11053,13305C11043,13294 11040,13201 11040,12914L11040,12537L10936,12542C10867,12546 10828,12544 10821,12537C10809,12525 10806,12363 10816,12336C10821,12322 10859,12320 11141,12320L11460,12320L11460,12529L11416,12535C11391,12539 11354,12539 11333,12535C11304,12531 11290,12533 11281,12543C11272,12554 11269,12656 11267,12926C11266,13129 11261,13301 11257,13308C11245,13326 11069,13324 11053,13305Z" style="fill:rgb(255,249,232);fill-rule:nonzero;"/>
                        <path id="pZhwuOd6f" d="M11842,13307C11833,13296 11828,13239 11827,13108C11826,12984 11821,12919 11813,12905C11806,12894 11786,12854 11769,12815C11752,12777 11729,12727 11719,12706C11709,12684 11700,12660 11700,12653C11700,12646 11696,12640 11690,12640C11685,12640 11680,12631 11680,12620C11680,12609 11676,12600 11670,12600C11665,12600 11660,12594 11660,12587C11660,12574 11637,12520 11600,12447C11589,12425 11580,12388 11580,12364L11580,12320L11795,12320L11809,12353C11816,12370 11834,12412 11850,12445C11865,12478 11887,12532 11900,12565C11913,12598 11927,12629 11932,12634C11936,12640 11940,12654 11940,12667C11940,12680 11945,12690 11950,12690C11956,12690 11960,12683 11960,12675C11960,12667 11964,12652 11969,12642C11995,12590 12020,12528 12020,12515C12020,12507 12025,12500 12030,12500C12036,12500 12040,12493 12040,12485C12040,12477 12049,12451 12059,12427C12069,12404 12084,12370 12091,12353L12105,12320L12320,12320L12320,12361C12320,12383 12313,12416 12304,12433C12260,12516 12247,12543 12232,12580C12226,12594 12199,12652 12171,12709C12143,12765 12120,12818 12120,12825C12120,12832 12116,12840 12112,12842C12108,12844 12094,12866 12082,12892C12062,12936 12060,12955 12060,13120L12060,13300L11961,13300C11897,13300 11860,13304 11858,13311C11856,13318 11850,13317 11842,13307Z" style="fill:rgb(255,249,232);fill-rule:nonzero;"/>
                        <path id="p16VrxWoaZ" d="M12857,13308C12841,13296 12840,13257 12842,12810L12845,12325L12953,12322L13060,12319L13061,12407C13064,12845 13068,13030 13074,13056L13082,13087L13232,13085C13423,13082 13422,13081 13418,13208L13415,13295L13378,13298C13357,13300 13340,13305 13340,13311C13340,13326 12878,13323 12857,13308Z" style="fill:rgb(255,249,232);fill-rule:nonzero;"/>
                        <path id="p3UhKciHw" d="M13630,13310C13618,13303 13614,13264 13610,13103L13605,12905L13554,12800C13467,12621 13440,12563 13440,12551C13440,12545 13436,12540 13430,12540C13425,12540 13420,12534 13420,12528C13420,12521 13409,12493 13395,12466C13382,12439 13368,12402 13364,12384C13354,12328 13368,12320 13479,12320C13575,12320 13600,12328 13600,12357C13600,12364 13614,12398 13630,12432C13647,12466 13658,12500 13656,12507C13653,12513 13655,12520 13659,12522C13671,12527 13720,12637 13720,12660C13720,12692 13735,12683 13749,12643C13757,12622 13773,12583 13785,12555C13798,12528 13820,12476 13834,12440C13849,12404 13866,12362 13873,12347L13885,12319L14105,12325L14108,12358C14110,12379 14102,12410 14086,12442C14072,12471 14060,12500 14060,12507C14060,12514 14056,12520 14050,12520C14045,12520 14040,12525 14040,12532C14040,12538 13999,12627 13948,12729L13857,12915L13858,13108L13860,13300L13760,13300C13700,13300 13660,13304 13660,13310C13660,13322 13649,13323 13630,13310Z" style="fill:rgb(255,249,232);fill-rule:nonzero;"/>
                        <path id="pDr2N2u16" d="M14253,13313C14243,13310 14241,13194 14240,12814L14240,12320L14355,12320C14469,12320 14470,12320 14476,12345C14479,12359 14479,12401 14475,12438C14469,12493 14465,12744 14469,12850C14472,12953 14463,13288 14456,13303C14449,13317 14434,13320 14356,13319C14306,13319 14260,13316 14253,13313Z" style="fill:rgb(255,249,232);fill-rule:nonzero;"/>
                        <path id="pWJL0LOEy" d="M15137,13314C15133,13310 15115,13275 15097,13236C15078,13197 15026,13089 14981,12996C14937,12904 14900,12824 14900,12820C14900,12812 14870,12750 14866,12750C14865,12750 14864,12873 14864,13023L14865,13295L14645,13295L14642,12808L14640,12320L14756,12320C14835,12320 14875,12324 14883,12333C14895,12345 14913,12380 15009,12585C15038,12646 15070,12712 15081,12733C15091,12755 15100,12778 15100,12786C15100,12794 15105,12800 15110,12800C15116,12800 15120,12809 15120,12819C15120,12830 15124,12842 15130,12845C15136,12849 15141,12757 15142,12588L15145,12325L15365,12325L15365,13295L15268,13298C15214,13299 15170,13305 15170,13310C15170,13321 15147,13323 15137,13314ZM15332,13252C15320,13244 15260,13248 15260,13256C15260,13258 15279,13260 15303,13260C15328,13260 15340,13256 15332,13252ZM15317,12698C15316,12619 15314,12683 15314,12840C15314,12997 15316,13061 15317,12983C15319,12904 15319,12776 15317,12698ZM15317,12388C15315,12370 15313,12382 15313,12415C15313,12448 15315,12463 15317,12448C15319,12433 15319,12406 15317,12388Z" style="fill:rgb(255,249,232);fill-rule:nonzero;"/>
                        <path id="poa3dMSID" d="M16967,13313C16963,13310 16960,13134 16960,12923L16960,12539L16868,12540C16817,12541 16767,12541 16758,12541C16742,12540 16740,12528 16740,12436C16740,12351 16743,12331 16756,12326C16765,12323 16908,12320 17074,12320L17377,12320L17384,12399C17391,12483 17382,12523 17355,12534C17327,12544 17272,12541 17267,12528C17263,12518 17261,12518 17261,12528C17260,12535 17246,12540 17225,12540L17190,12540L17188,12608C17184,12819 17186,13146 17192,13215C17199,13284 17198,13297 17183,13308C17165,13321 16979,13326 16967,13313Z" style="fill:rgb(255,249,232);fill-rule:nonzero;"/>
                        <path id="pg0lzqnUc" d="M17521,13307C17506,13288 17506,12352 17522,12333C17536,12316 17925,12315 17990,12333C18101,12362 18163,12438 18184,12570C18194,12630 18175,12798 18156,12818C18147,12828 18140,12845 18140,12855C18140,12876 18075,12940 18054,12940C18046,12940 18040,12949 18040,12960C18040,12971 18044,12980 18049,12980C18054,12980 18060,12988 18063,12998C18069,13015 18100,13070 18110,13080C18129,13099 18190,13236 18190,13259C18190,13293 18176,13300 18114,13300C18090,13300 18070,13305 18070,13310C18070,13316 18046,13320 18017,13320L17963,13320L17879,13151C17801,12994 17782,12967 17755,12977C17749,12979 17746,13038 17748,13136C17750,13244 17747,13296 17739,13306C17723,13325 17537,13326 17521,13307ZM17915,12737C17963,12697 17959,12585 17909,12548C17881,12527 17764,12517 17752,12535C17748,12540 17746,12593 17748,12653L17751,12760L17820,12760C17877,12760 17893,12756 17915,12737Z" style="fill:rgb(255,249,232);fill-rule:nonzero;"/>
                        <path id="pRTCeNj80" d="M18348,13309C18331,13300 18330,13266 18330,12832C18330,12575 18333,12355 18336,12343C18342,12322 18348,12321 18451,12321C18530,12320 18562,12324 18565,12333C18575,12362 18576,12521 18567,12584C18561,12631 18561,12654 18568,12659C18581,12667 18579,12792 18566,12802C18560,12806 18561,12843 18568,12898C18575,12947 18580,13053 18580,13134C18580,13318 18581,13317 18454,13319C18405,13319 18357,13315 18348,13309ZM18540,12765C18540,12758 18533,12750 18525,12746C18514,12742 18510,12747 18510,12765C18510,12783 18514,12788 18525,12784C18533,12780 18540,12772 18540,12765ZM18540,12460C18540,12455 18536,12450 18531,12450C18526,12450 18519,12442 18517,12433C18514,12422 18512,12426 18511,12443C18510,12461 18515,12470 18525,12470C18533,12470 18540,12466 18540,12460Z" style="fill:rgb(255,249,232);fill-rule:nonzero;"/>
                        <path id="py92FUi02" d="M18918,13300C18910,13292 18900,13272 18896,13255C18892,13239 18885,13207 18879,13185C18874,13163 18865,13129 18860,13110C18848,13058 18821,12950 18810,12908C18792,12839 18782,12796 18770,12740C18764,12710 18754,12667 18749,12645C18743,12623 18735,12589 18730,12570C18714,12504 18698,12445 18689,12422C18684,12409 18680,12381 18680,12359L18680,12319L18914,12325L18922,12355C18926,12372 18932,12399 18935,12415C18938,12432 18944,12456 18949,12470C18954,12484 18963,12520 18969,12550C18976,12580 18985,12621 18990,12640C18998,12674 19011,12735 19049,12925C19059,12975 19071,13015 19076,13015C19080,13015 19088,12995 19092,12970C19102,12912 19118,12834 19130,12790C19144,12737 19184,12564 19211,12440C19217,12415 19226,12378 19232,12358L19243,12320L19460,12320L19460,12364C19460,12387 19456,12420 19451,12436C19446,12452 19437,12490 19431,12520C19424,12550 19414,12586 19410,12600C19400,12625 19396,12647 19380,12730C19375,12755 19364,12798 19356,12825C19347,12853 19340,12883 19340,12893C19340,12902 19332,12929 19321,12953C19311,12976 19297,13029 19290,13070C19284,13111 19274,13155 19269,13168C19264,13181 19260,13198 19260,13207C19260,13216 19252,13241 19243,13262L19226,13300L19148,13300C19099,13300 19070,13304 19070,13311C19070,13328 18937,13319 18918,13300Z" style="fill:rgb(255,249,232);fill-rule:nonzero;"/>
                        <path id="p1FZuuDbhB" d="M19780,13310C19780,13304 19741,13300 19680,13300L19581,13300L19580,12824C19580,12483 19583,12343 19591,12334C19599,12324 19631,12320 19706,12320L19810,12320L19810,12779C19810,13031 19813,13250 19816,13266C19820,13288 19816,13298 19801,13308C19788,13315 19780,13316 19780,13310Z" style="fill:rgb(255,249,232);fill-rule:nonzero;"/>
                        <path id="pLiih804N" d="M19922,13308C19915,13301 19910,13289 19910,13281C19910,13266 19938,13150 19961,13073C19988,12979 19992,12963 19996,12940C19999,12926 20005,12906 20010,12895C20015,12884 20021,12864 20024,12850C20026,12836 20034,12807 20040,12785C20046,12763 20055,12729 20060,12710C20065,12691 20073,12659 20079,12640C20101,12561 20138,12422 20156,12348L20162,12320L20457,12320L20478,12378C20500,12438 20526,12529 20541,12595C20545,12617 20554,12651 20560,12670C20567,12689 20576,12720 20581,12738C20586,12755 20595,12787 20601,12808C20607,12828 20615,12861 20620,12880C20625,12899 20633,12931 20639,12950C20649,12986 20685,13119 20700,13180C20713,13230 20712,13282 20696,13303C20685,13317 20667,13320 20593,13320C20532,13320 20499,13316 20492,13308C20483,13295 20476,13265 20464,13183C20458,13142 20456,13140 20421,13139C20401,13139 20340,13137 20284,13134C20184,13129 20184,13129 20172,13155C20165,13169 20160,13195 20160,13212C20160,13228 20150,13260 20138,13281L20116,13320L20025,13320C19968,13320 19930,13316 19922,13308ZM20400,12926C20400,12918 20396,12901 20391,12888C20386,12875 20367,12803 20350,12728C20332,12652 20314,12590 20310,12590C20306,12590 20300,12605 20297,12623C20278,12729 20271,12759 20256,12799C20247,12823 20240,12854 20240,12869C20240,12883 20236,12902 20231,12910C20225,12918 20223,12927 20225,12930C20227,12934 20268,12937 20315,12939C20384,12940 20400,12938 20400,12926Z" style="fill:rgb(255,249,232);fill-rule:nonzero;"/>
                        <path id="p7mrfSGnB" d="M21430,13311C21422,13305 21405,13300 21392,13300C21360,13300 21332,13282 21274,13225C21223,13174 21190,13125 21176,13080C21156,13012 21140,12896 21141,12815C21142,12724 21159,12598 21173,12584C21177,12580 21180,12570 21180,12563C21180,12507 21287,12372 21359,12336C21415,12308 21528,12296 21612,12308C21759,12329 21848,12397 21885,12514C21910,12593 21904,12614 21855,12620C21833,12623 21809,12629 21802,12634C21795,12638 21766,12638 21736,12635C21687,12629 21682,12625 21671,12594C21654,12548 21616,12520 21569,12520C21547,12520 21530,12516 21530,12510C21530,12498 21483,12517 21456,12539C21446,12548 21425,12583 21409,12617C21386,12669 21381,12694 21379,12777C21376,12875 21396,13020 21412,13020C21416,13020 21420,13027 21420,13034C21420,13052 21476,13095 21510,13103C21549,13113 21605,13100 21633,13076C21665,13048 21680,13011 21680,12961C21680,12915 21668,12909 21581,12917L21522,12923L21515,12869C21511,12839 21510,12799 21512,12780L21515,12745L21708,12742L21900,12740L21900,12825C21900,12875 21904,12910 21910,12910C21926,12910 21922,13032 21903,13086C21875,13169 21826,13236 21770,13269C21711,13303 21463,13334 21430,13311Z" style="fill:rgb(255,249,232);fill-rule:nonzero;"/>
                        <path id="pqlGxIxPh" d="M22573,13308C22565,13296 22557,13266 22536,13168L22530,13140L22264,13140L22245,13218L22225,13295L22116,13298C22056,13299 22003,13297 21999,13293C21991,13285 21999,13239 22020,13165C22026,13143 22035,13109 22040,13090C22045,13071 22054,13037 22060,13015C22066,12993 22075,12959 22080,12940C22089,12905 22102,12858 22121,12790C22127,12771 22135,12739 22140,12720C22148,12687 22159,12649 22179,12578C22201,12505 22210,12472 22228,12400L22247,12325L22392,12322C22536,12320 22538,12320 22545,12342C22563,12394 22571,12427 22576,12460C22578,12479 22588,12513 22597,12535C22605,12557 22616,12590 22621,12608C22626,12625 22635,12657 22641,12678C22647,12698 22655,12731 22660,12750C22665,12769 22678,12819 22690,12860C22774,13151 22798,13255 22787,13283C22782,13296 22768,13300 22730,13300C22703,13300 22680,13305 22680,13310C22680,13325 22584,13322 22573,13308ZM22476,12913C22472,12897 22465,12868 22460,12848C22434,12746 22428,12720 22418,12663C22413,12628 22404,12600 22400,12600C22389,12600 22360,12682 22360,12716C22360,12732 22351,12770 22341,12800C22325,12847 22315,12904 22319,12933C22320,12937 22357,12940 22401,12940L22482,12940L22476,12913Z" style="fill:rgb(255,249,232);fill-rule:nonzero;"/>
                        <path id="pbOnGnPt3" d="M23650,13305C23641,13294 23639,13221 23642,13006C23646,12767 23644,12724 23633,12736C23626,12743 23619,12765 23618,12785C23617,12804 23613,12820 23608,12820C23604,12820 23600,12826 23600,12833C23600,12854 23542,13029 23520,13077C23509,13101 23500,13126 23500,13134C23500,13142 23496,13152 23490,13155C23485,13158 23480,13172 23480,13184C23480,13213 23440,13223 23359,13214C23293,13207 23296,13210 23250,13070C23233,13018 23214,12965 23208,12954C23203,12942 23197,12921 23197,12907C23196,12893 23193,12883 23189,12885C23186,12887 23178,12868 23172,12842C23149,12756 23145,12746 23135,12748C23129,12749 23123,12853 23120,13022L23115,13295L23008,13298L22900,13301L22900,12822C22900,12464 22903,12341 22912,12332C22920,12324 22968,12320 23060,12320C23152,12320 23200,12324 23208,12332C23221,12345 23224,12376 23213,12383C23208,12385 23210,12385 23217,12384C23223,12382 23236,12406 23246,12438C23255,12469 23267,12499 23272,12505C23276,12510 23280,12522 23280,12532C23280,12542 23284,12558 23289,12568C23294,12577 23316,12640 23337,12708C23376,12831 23392,12857 23398,12810C23400,12796 23405,12781 23410,12775C23414,12770 23423,12744 23431,12718C23438,12692 23448,12674 23454,12677C23459,12680 23460,12678 23457,12673C23451,12664 23483,12557 23510,12495C23515,12484 23524,12457 23531,12435C23537,12413 23546,12386 23550,12375C23555,12364 23561,12347 23564,12338C23569,12322 23585,12320 23714,12320L23858,12320L23862,12388C23869,12519 23871,13286 23864,13303C23859,13317 23844,13320 23760,13320C23686,13320 23659,13316 23650,13305Z" style="fill:rgb(255,249,232);fill-rule:nonzero;"/>
                        <path id="p11izNJSh1" d="M24067,13308C24052,13303 24038,13289 24035,13277C24027,13246 24034,12333 24042,12325C24045,12321 24176,12319 24331,12320C24541,12320 24616,12324 24623,12333C24635,12350 24621,12523 24607,12532C24600,12537 24528,12540 24445,12540C24363,12539 24291,12539 24285,12540C24279,12540 24275,12574 24275,12621L24275,12702L24416,12701L24558,12699L24553,12792C24551,12843 24547,12890 24545,12897C24541,12908 24411,12915 24286,12911C24263,12911 24259,12913 24268,12922C24275,12929 24280,12966 24280,13015L24280,13095L24625,13095L24628,13194C24630,13258 24627,13297 24619,13306C24610,13317 24559,13320 24351,13319C24207,13319 24083,13314 24067,13308Z" style="fill:rgb(255,249,232);fill-rule:nonzero;"/>
                        <path id="pViE8NB7Q" d="M24756,11897C24752,11900 24674,11879 24637,11866C24570,11842 24503,11797 24465,11751C24424,11701 24356,11580 24330,11495C24313,11436 24324,11288 24351,11223C24377,11159 24390,11140 24445,11084C24506,11021 24535,11002 24611,10976C24671,10955 24721,10956 24767,10981C24820,11009 24855,11063 24884,11161C24919,11282 24925,11295 24959,11320C24983,11336 25004,11342 25049,11341C25082,11341 25117,11337 25127,11332C25137,11327 25165,11312 25190,11299C25243,11272 25307,11208 25337,11151C25381,11068 25375,10880 25320,10660C25314,10635 25305,10593 25299,10565C25294,10538 25285,10493 25280,10465C25260,10374 25251,10325 25245,10290C25241,10271 25235,10246 25230,10235C25225,10224 25219,10202 25217,10185C25212,10153 25194,10062 25179,9993C25155,9882 25150,9851 25144,9803C25140,9774 25134,9750 25130,9750C25126,9750 25120,9731 25117,9708C25113,9684 25106,9645 25100,9620C25084,9554 25070,9492 25060,9435C25055,9408 25045,9367 25039,9345C25032,9323 25026,9287 25025,9265C25023,9243 25018,9214 25012,9200C25006,9186 24997,9148 24990,9115C24984,9082 24975,9041 24969,9024C24964,9007 24960,8984 24960,8972C24960,8961 24956,8941 24951,8928C24946,8915 24937,8878 24931,8845C24913,8753 24880,8599 24868,8557C24862,8537 24860,8517 24863,8514C24866,8510 24863,8498 24855,8486C24847,8475 24840,8456 24840,8445C24840,8402 24801,8360 24734,8330C24678,8305 24667,8295 24650,8258C24617,8184 24626,8096 24671,8050C24698,8024 24762,8002 24800,8008C24808,8009 25037,8010 25307,8010L25800,8011L25829,8035C25866,8067 25879,8135 25856,8182C25847,8199 25840,8217 25840,8222C25840,8228 25820,8250 25795,8272C25764,8300 25747,8325 25739,8354C25733,8376 25724,8403 25718,8414C25712,8426 25712,8430 25719,8426C25725,8422 25731,8435 25735,8457C25738,8478 25745,8518 25750,8545C25755,8573 25762,8611 25765,8630C25768,8649 25775,8692 25780,8725C25786,8758 25792,8804 25795,8827C25798,8850 25805,8881 25810,8895C25816,8910 25820,8945 25820,8973C25820,9002 25827,9050 25836,9080C25845,9110 25855,9171 25860,9215C25864,9259 25873,9313 25879,9335C25894,9387 25910,9496 25916,9588C25920,9656 25952,9805 25964,9818C25977,9830 26014,9781 26046,9712C26065,9673 26080,9638 26080,9636C26080,9634 26098,9592 26120,9543C26143,9495 26165,9446 26169,9435C26174,9424 26187,9395 26199,9372C26210,9348 26220,9324 26220,9320C26220,9315 26233,9283 26249,9248C26265,9213 26293,9154 26310,9115C26327,9077 26350,9027 26360,9005C26370,8983 26385,8949 26393,8930C26401,8911 26415,8877 26425,8855C26434,8833 26446,8806 26450,8795C26454,8784 26467,8754 26479,8728C26491,8702 26500,8678 26500,8675C26500,8672 26509,8651 26519,8627C26551,8556 26560,8519 26560,8458C26560,8381 26542,8341 26486,8294C26439,8255 26400,8188 26400,8146C26400,8113 26437,8030 26458,8014C26485,7994 26541,7991 26945,7985C27344,7980 27383,7983 27431,8024C27450,8040 27452,8050 27448,8116C27443,8186 27441,8191 27406,8224C27385,8243 27341,8273 27309,8290C27199,8349 27120,8446 27028,8640C26990,8720 26954,8794 26948,8805C26942,8816 26934,8832 26930,8840C26926,8848 26900,8903 26871,8962C26843,9021 26820,9074 26820,9080C26820,9086 26806,9119 26789,9153C26772,9187 26749,9235 26737,9260C26706,9329 26704,9334 26693,9355C26688,9366 26667,9407 26648,9445C26628,9484 26607,9532 26601,9552C26592,9577 26556,9653 26527,9711C26499,9769 26467,9837 26456,9861C26432,9917 26398,9993 26349,10095C26303,10194 26260,10289 26260,10295C26260,10311 26130,10579 26119,10586C26114,10589 26110,10602 26110,10615C26110,10628 26106,10641 26101,10644C26096,10647 26076,10689 26055,10737C26008,10847 25947,10980 25913,11045C25899,11073 25871,11127 25850,11166C25808,11248 25710,11400 25667,11450C25577,11555 25479,11657 25430,11694C25377,11734 25275,11800 25265,11800C25263,11800 25231,11814 25195,11830C25159,11847 25122,11860 25112,11860C25102,11860 25090,11864 25084,11870C25079,11875 25005,11882 24920,11886C24835,11889 24761,11894 24756,11897ZM25048,8043C25005,8041 24935,8041 24893,8043C24850,8044 24885,8046 24970,8046C25055,8046 25090,8044 25048,8043ZM25459,8045C25452,8038 25139,8037 25133,8044C25129,8047 25202,8050 25295,8050C25388,8050 25461,8048 25459,8045ZM25548,8043C25538,8041 25520,8041 25508,8043C25495,8045 25503,8047 25525,8047C25547,8048 25557,8046 25548,8043ZM25703,8043C25680,8041 25639,8041 25613,8043C25587,8045 25606,8046 25655,8046C25705,8046 25726,8045 25703,8043ZM26918,8023C26908,8021 26890,8021 26878,8023C26865,8025 26873,8027 26895,8027C26917,8028 26927,8026 26918,8023Z" style="fill:rgb(255,249,232);fill-rule:nonzero;"/>
                        <path id="pM6XMkqkO" d="M16368,10815C16365,10811 16320,10802 16269,10794C16132,10771 16120,10769 16120,10760C16120,10756 16101,10750 16078,10748C16040,10744 15910,10686 15824,10635C15785,10611 15758,10619 15696,10670C15624,10730 15593,10739 15456,10744C15328,10749 15272,10740 15244,10709C15226,10689 15197,10554 15206,10528C15209,10518 15216,10473 15221,10427C15240,10272 15274,10034 15301,9863C15307,9825 15315,9761 15320,9720C15324,9679 15333,9611 15340,9570C15355,9475 15373,9345 15400,9143C15406,9100 15415,9034 15420,8995C15426,8957 15434,8891 15439,8850C15444,8809 15451,8762 15454,8745C15465,8687 15491,8519 15501,8442C15506,8400 15515,8334 15521,8295C15526,8257 15535,8191 15541,8150C15547,8109 15555,8046 15560,8010C15637,7449 15638,7430 15595,7355C15567,7307 15548,7291 15489,7262C15432,7234 15407,7207 15390,7153C15360,7057 15434,6968 15556,6956C15615,6950 15718,6934 15780,6921C15805,6915 15839,6908 15855,6905C15872,6901 15894,6895 15905,6890C15916,6886 15963,6875 16010,6866C16090,6850 16114,6844 16215,6819C16237,6813 16273,6805 16295,6800C16317,6795 16355,6786 16380,6780C16475,6757 16524,6756 16569,6779C16592,6791 16614,6808 16617,6816C16624,6836 16602,7052 16585,7120C16577,7150 16568,7207 16564,7245C16560,7284 16553,7326 16548,7340C16538,7367 16519,7492 16515,7555C16514,7577 16508,7614 16501,7638C16494,7662 16485,7714 16480,7753C16475,7793 16466,7854 16460,7890C16453,7926 16447,7975 16446,8000C16444,8025 16438,8057 16432,8072C16426,8087 16423,8106 16426,8114C16429,8122 16427,8144 16422,8163C16408,8213 16417,8249 16441,8243C16451,8240 16460,8234 16460,8229C16460,8211 16660,8086 16750,8047C16914,7976 17018,7957 17230,7963C17399,7968 17466,7975 17476,7991C17479,7996 17488,8000 17496,8000C17504,8000 17529,8009 17553,8019C17576,8029 17610,8044 17628,8051C17645,8059 17660,8068 17660,8072C17660,8077 17665,8080 17671,8080C17708,8080 17850,8210 17928,8315C17957,8354 17984,8390 17988,8395C18032,8453 18095,8622 18105,8710C18109,8740 18117,8781 18123,8800C18143,8866 18128,9328 18101,9460C18095,9490 18086,9536 18080,9562C18075,9588 18066,9617 18061,9627C18056,9637 18037,9688 18020,9740C17981,9857 17943,9951 17913,10008C17857,10112 17836,10147 17798,10203C17748,10277 17541,10492 17491,10522C17471,10534 17453,10547 17450,10551C17444,10560 17294,10651 17260,10667C17226,10683 17155,10714 17096,10739C17069,10751 17036,10760 17022,10760C17008,10760 16983,10764 16966,10769C16875,10796 16822,10803 16690,10806C16610,10808 16506,10812 16459,10815C16412,10818 16371,10818 16368,10815ZM16574,10390C16633,10377 16644,10373 16725,10334C16793,10301 16917,10184 16967,10105C16985,10078 17003,10051 17007,10045C17029,10017 17120,9815 17120,9795C17120,9787 17124,9772 17129,9762C17143,9733 17160,9675 17160,9652C17160,9641 17164,9629 17169,9626C17173,9623 17180,9599 17184,9573C17188,9546 17195,9500 17201,9470C17228,9307 17235,9229 17234,9075C17234,8886 17227,8823 17198,8736C17126,8527 17030,8457 16818,8458C16723,8458 16720,8459 16642,8502C16558,8547 16504,8592 16431,8679C16355,8769 16318,8871 16300,9048C16295,9094 16286,9137 16280,9145C16269,9158 16251,9278 16246,9370C16244,9395 16238,9435 16232,9460C16220,9509 16198,9703 16199,9760C16199,9779 16194,9811 16188,9830C16182,9849 16176,9889 16174,9920C16173,9950 16165,10002 16158,10035C16146,10085 16146,10104 16157,10150C16165,10180 16173,10214 16175,10224C16180,10244 16238,10322 16252,10328C16257,10330 16266,10337 16273,10344C16294,10364 16343,10383 16385,10387C16407,10390 16426,10392 16427,10393C16435,10401 16534,10399 16574,10390Z" style="fill:rgb(255,249,232);fill-rule:nonzero;"/>
                        <path id="pOCX9avJ5" d="M23235,10795C23128,10772 23082,10754 23010,10707C22956,10670 22858,10572 22865,10560C22868,10556 22864,10550 22857,10547C22841,10541 22799,10458 22775,10387C22741,10285 22738,10058 22770,9875C22777,9833 22789,9751 22805,9640C22807,9626 22814,9581 22820,9540C22826,9499 22836,9438 22840,9405C22845,9372 22854,9314 22860,9275C22865,9237 22875,9171 22881,9130C22895,9033 22907,8952 22920,8865C22945,8703 22951,8661 22960,8580C22965,8533 22967,8481 22964,8463C22958,8433 22955,8432 22907,8428C22878,8426 22842,8428 22827,8433C22753,8457 22580,8421 22580,8381C22580,8372 22575,8359 22569,8353C22562,8346 22559,8311 22562,8258C22565,8191 22571,8164 22594,8118C22625,8057 22653,8038 22755,8005C22805,7989 22860,7966 22892,7949C22902,7944 22915,7940 22921,7940C22936,7940 23043,7885 23083,7857C23145,7813 23284,7665 23337,7585C23351,7563 23366,7543 23370,7540C23373,7537 23387,7519 23400,7500C23414,7481 23428,7461 23432,7455C23437,7450 23464,7414 23492,7375C23574,7264 23599,7245 23761,7169C23770,7165 23812,7156 23854,7149C23914,7139 23935,7139 23950,7148C23961,7155 23976,7160 23983,7160C24027,7160 24050,7286 24024,7383C24005,7453 23977,7628 23978,7665C23979,7681 23971,7720 23960,7750C23948,7785 23940,7836 23939,7890L23937,7975L24206,7980C24354,7983 24476,7987 24477,7988C24478,7989 24491,8001 24505,8015C24519,8029 24530,8046 24530,8053C24531,8060 24533,8090 24535,8120C24540,8181 24524,8298 24509,8316C24504,8322 24502,8334 24505,8342C24514,8364 24480,8395 24427,8413C24387,8426 24332,8429 24124,8429C23984,8430 23864,8430 23856,8430C23842,8430 23824,8482 23829,8508C23830,8514 23826,8537 23820,8558C23806,8603 23791,8699 23787,8760C23785,8785 23778,8815 23772,8827C23758,8853 23756,8900 23770,8900C23776,8900 23775,8910 23769,8928C23763,8943 23758,8969 23758,8985C23759,9002 23751,9042 23740,9075C23730,9109 23724,9147 23727,9161C23729,9175 23724,9204 23716,9225C23705,9250 23703,9266 23710,9270C23716,9274 23716,9287 23709,9311C23698,9346 23684,9438 23676,9520C23674,9545 23665,9583 23656,9605C23648,9627 23641,9663 23642,9685C23642,9707 23635,9775 23626,9835C23607,9960 23615,10046 23654,10130C23675,10176 23723,10210 23794,10228C23859,10245 23926,10230 24040,10174C24126,10133 24174,10111 24220,10093C24253,10081 24321,10095 24348,10121C24367,10138 24370,10152 24370,10223C24370,10337 24345,10388 24238,10490C24193,10533 24152,10566 24148,10564C24144,10561 24140,10565 24140,10573C24140,10587 24060,10647 24060,10633C24060,10628 24056,10630 24052,10635C24044,10647 23947,10710 23937,10710C23933,10710 23909,10720 23882,10733C23798,10773 23690,10800 23611,10800C23578,10800 23550,10804 23550,10809C23550,10826 23338,10817 23235,10795Z" style="fill:rgb(255,249,232);fill-rule:nonzero;"/>
                        <path id="ppjw7Ncpb" d="M8145,10799C8033,10792 7882,10766 7866,10750C7861,10745 7844,10740 7830,10740C7816,10740 7800,10736 7794,10732C7789,10727 7765,10715 7740,10706C7618,10658 7400,10477 7318,10355C7293,10318 7227,10191 7209,10145C7195,10109 7168,10010 7150,9925C7134,9851 7123,9597 7132,9521C7147,9390 7161,9294 7170,9260C7183,9207 7239,9028 7249,9005C7254,8994 7266,8967 7275,8945C7335,8806 7384,8719 7472,8595C7562,8470 7665,8357 7763,8277C7864,8195 8052,8080 8086,8080C8094,8080 8100,8076 8100,8071C8100,8066 8110,8060 8123,8057C8135,8054 8172,8042 8205,8030C8238,8017 8284,8003 8308,7999C8331,7994 8371,7985 8398,7979C8526,7950 8852,7946 8975,7971C9204,8019 9344,8091 9479,8229C9544,8296 9600,8370 9600,8389C9600,8395 9603,8400 9608,8400C9612,8400 9621,8415 9629,8432C9636,8450 9649,8480 9657,8499C9677,8543 9691,8588 9696,8625C9698,8642 9705,8669 9710,8685C9715,8702 9722,8764 9725,8824C9728,8884 9733,8936 9735,8940C9739,8947 9727,9033 9710,9115C9704,9143 9698,9194 9696,9230C9691,9301 9664,9417 9647,9438C9613,9481 9609,9481 8937,9484C8584,9486 8240,9491 8172,9495C8015,9505 8014,9506 8017,9658C8019,9767 8034,9826 8089,9940C8111,9987 8197,10085 8252,10127C8279,10147 8379,10190 8445,10210C8508,10229 8772,10216 8835,10191C8846,10186 8873,10177 8895,10170C8979,10144 9143,10051 9180,10009C9202,9984 9308,9907 9337,9895C9401,9868 9483,9910 9520,9986C9539,10027 9540,10039 9531,10076C9525,10100 9520,10131 9520,10145C9520,10176 9486,10244 9451,10284C9366,10380 9190,10544 9182,10535C9179,10532 9163,10543 9146,10558C9108,10594 9044,10641 9033,10642C9020,10643 8977,10663 8950,10680C8919,10700 8835,10733 8755,10755C8722,10765 8673,10779 8647,10787C8594,10803 8322,10810 8145,10799ZM8931,9027C8972,9000 8982,8951 8977,8805C8972,8675 8966,8623 8951,8585C8888,8429 8809,8352 8691,8332C8515,8301 8339,8415 8202,8650C8168,8708 8140,8762 8140,8771C8140,8779 8131,8805 8120,8828C8109,8850 8100,8879 8100,8891C8100,8914 8084,8973 8069,9002C8063,9013 8066,9021 8078,9026C8101,9037 8441,9048 8695,9046C8875,9044 8909,9042 8931,9027Z" style="fill:rgb(255,249,232);fill-rule:nonzero;"/>
                        <path id="pXAcxXj7R" d="M3035,10747C2992,10730 2971,10710 2954,10671C2912,10572 2957,10497 3102,10425C3150,10401 3205,10367 3223,10350C3285,10294 3319,10195 3344,10000C3346,9981 3353,9931 3360,9890C3366,9849 3376,9787 3381,9753C3386,9718 3395,9660 3400,9623C3406,9585 3415,9517 3421,9470C3437,9340 3448,9261 3460,9190C3466,9154 3475,9089 3480,9045C3486,9001 3495,8934 3500,8895C3506,8857 3515,8794 3520,8755C3526,8717 3534,8660 3539,8630C3553,8552 3569,8439 3580,8340C3595,8210 3601,8142 3605,8133C3608,8123 3616,8079 3622,8035C3627,7991 3635,7928 3640,7895C3645,7862 3654,7801 3659,7760C3664,7719 3674,7654 3680,7615C3698,7508 3704,7340 3691,7327C3685,7321 3680,7308 3680,7299C3680,7290 3650,7249 3612,7208C3528,7116 3520,7102 3520,7042C3520,7001 3525,6988 3553,6958C3570,6938 3599,6918 3615,6913C3632,6909 3951,6907 4325,6910L5006,6915L5033,6942C5056,6965 5060,6977 5060,7028C5060,7122 5025,7169 4920,7217C4888,7231 4847,7261 4822,7288C4762,7353 4701,7473 4700,7526C4700,7537 4692,7571 4681,7601C4671,7631 4659,7693 4655,7740C4651,7787 4646,7834 4643,7845C4641,7856 4639,7882 4639,7903C4639,7925 4630,7967 4618,7998C4603,8037 4601,8055 4609,8058C4624,8063 4623,8089 4607,8120C4595,8143 4587,8196 4575,8345C4574,8367 4565,8414 4557,8450C4544,8507 4536,8561 4524,8660C4510,8791 4499,8861 4491,8883C4484,8900 4484,8910 4491,8912C4497,8914 4495,8932 4486,8958C4478,8981 4473,9007 4476,9014C4479,9022 4472,9060 4461,9098C4449,9136 4442,9175 4446,9183C4449,9191 4444,9222 4436,9250C4427,9279 4423,9313 4426,9326C4429,9338 4424,9374 4416,9405C4407,9435 4399,9491 4399,9528C4398,9565 4394,9612 4389,9632C4384,9653 4378,9693 4376,9721C4375,9749 4368,9775 4361,9780C4353,9784 4349,9804 4351,9831C4353,9874 4344,9931 4314,10062C4301,10119 4301,10136 4311,10167C4330,10221 4335,10226 4390,10244C4471,10270 4749,10262 4835,10230C5002,10169 5107,10068 5211,9870C5230,9834 5247,9803 5250,9800C5253,9797 5270,9766 5289,9730C5308,9694 5326,9663 5329,9660C5333,9657 5344,9642 5354,9627C5400,9554 5527,9558 5605,9635C5628,9659 5630,9668 5630,9753C5630,9857 5618,9944 5597,9992C5579,10033 5551,10147 5540,10220C5536,10250 5527,10286 5521,10300C5515,10314 5506,10350 5501,10380C5485,10481 5405,10687 5373,10707C5329,10736 5201,10750 5028,10746C4847,10741 3497,10740 3300,10744C3231,10746 3150,10750 3120,10753C3087,10756 3053,10754 3035,10747Z" style="fill:rgb(255,249,232);fill-rule:nonzero;"/>
                        <path id="pNjIi5ghB" d="M5740,10739C5710,10736 5677,10730 5667,10725C5630,10709 5603,10613 5615,10541C5623,10493 5655,10459 5725,10424C5781,10397 5827,10353 5848,10308C5880,10235 5881,10232 5900,10095C5905,10057 5914,9994 5920,9955C5927,9917 5936,9858 5940,9825C5953,9728 5968,9630 5980,9560C5986,9524 5995,9459 6000,9415C6006,9371 6014,9308 6018,9275C6023,9242 6035,9157 6044,9085C6053,9014 6065,8936 6070,8912C6076,8889 6080,8855 6080,8836C6080,8818 6085,8788 6091,8771C6113,8709 6066,8570 6018,8554C6008,8551 5982,8532 5959,8512C5921,8477 5918,8471 5917,8418C5916,8371 5920,8356 5944,8325C5976,8284 5990,8277 6092,8255C6132,8246 6183,8234 6205,8228C6227,8223 6262,8214 6283,8209C6377,8186 6468,8160 6495,8149C6506,8144 6542,8133 6575,8124C6631,8109 6659,8102 6720,8084C6734,8080 6750,8074 6755,8070C6761,8067 6785,8058 6810,8051C6835,8044 6869,8034 6887,8029C6932,8015 6989,8043 7012,8090C7026,8119 7027,8139 7020,8210C7015,8257 7007,8318 7000,8345C6989,8394 6980,8465 6979,8505C6979,8516 6972,8552 6963,8585C6949,8642 6943,8685 6937,8791C6935,8817 6929,8845 6922,8853C6915,8861 6909,8890 6909,8916C6908,8943 6902,8988 6894,9015C6886,9043 6880,9088 6879,9115C6879,9143 6870,9201 6859,9245C6849,9289 6838,9354 6836,9390C6834,9426 6825,9488 6816,9528C6807,9569 6798,9629 6795,9663C6793,9697 6785,9748 6777,9775C6769,9804 6766,9827 6772,9831C6777,9834 6776,9849 6769,9866C6757,9898 6737,10028 6738,10075C6738,10092 6732,10124 6723,10147C6706,10192 6710,10244 6734,10314C6750,10361 6795,10420 6815,10420C6827,10420 6876,10445 6928,10478C6935,10482 6942,10514 6944,10550C6949,10633 6927,10688 6876,10719L6840,10742L6317,10743C6030,10744 5770,10742 5740,10739Z" style="fill:rgb(255,249,232);fill-rule:nonzero;"/>
                        <path id="pbq54X5Ub" d="M11398,10741C11372,10737 11342,10725 11330,10715C11279,10669 11265,10568 11301,10504C11330,10452 11336,10447 11444,10394C11533,10351 11610,10294 11610,10270C11610,10265 11616,10255 11623,10248C11642,10229 11740,10034 11740,10016C11740,10007 11745,10000 11750,10000C11756,10000 11760,9994 11760,9987C11760,9979 11766,9960 11774,9944C11794,9903 11861,9757 11896,9680C11911,9644 11937,9591 11952,9561C11967,9532 11980,9504 11980,9499C11980,9487 12009,9422 12117,9190C12186,9043 12202,9007 12210,8985C12220,8959 12304,8776 12379,8617C12401,8569 12420,8525 12420,8520C12420,8514 12424,8502 12430,8492C12440,8474 12492,8360 12530,8275C12542,8248 12562,8203 12575,8175C12623,8069 12644,8023 12670,7960C12705,7877 12742,7796 12749,7790C12752,7787 12756,7777 12758,7767C12760,7756 12774,7720 12790,7687C12872,7508 12880,7482 12880,7416C12879,7316 12846,7281 12681,7206C12668,7200 12644,7182 12628,7167C12603,7142 12600,7131 12600,7076C12600,6998 12615,6967 12663,6939C12698,6920 12723,6917 12948,6910C13276,6899 13814,6899 13917,6911C13962,6916 14019,6929 14043,6939C14091,6960 14166,7028 14192,7076C14227,7139 14273,7303 14271,7357C14271,7370 14277,7412 14286,7452C14294,7492 14305,7557 14310,7595C14315,7634 14326,7694 14335,7730C14344,7766 14355,7824 14360,7860C14365,7896 14374,7945 14380,7970C14386,7995 14395,8044 14400,8080C14405,8116 14414,8168 14420,8195C14426,8223 14434,8281 14439,8325C14444,8369 14456,8437 14465,8475C14495,8601 14498,8620 14487,8620C14481,8620 14481,8625 14488,8633C14494,8639 14503,8677 14509,8715C14515,8754 14526,8821 14534,8865C14542,8909 14556,8983 14565,9030C14573,9077 14590,9145 14590,9145C14590,9145 14599,9184 14598,9195C14597,9206 14602,9240 14610,9270C14619,9308 14620,9325 14612,9328C14606,9330 14609,9339 14621,9351C14632,9362 14640,9384 14640,9404C14640,9423 14644,9460 14650,9487C14655,9513 14666,9580 14676,9635C14685,9690 14696,9751 14701,9770C14707,9789 14714,9828 14717,9855C14720,9883 14740,9953 14740,9970C14740,10029 14781,10202 14809,10264C14837,10325 14861,10350 14966,10430C15024,10474 15030,10490 15022,10587C15018,10645 15013,10656 14981,10690L14945,10728L14760,10732C14658,10735 14337,10738 14045,10739L13515,10741L13478,10710C13433,10672 13418,10616 13433,10539C13445,10476 13487,10430 13551,10411C13631,10387 13704,10344 13731,10305C13766,10254 13787,10122 13771,10053C13766,10026 13755,9971 13748,9930C13735,9850 13713,9801 13671,9760C13646,9736 13641,9735 13445,9728C13154,9719 13089,9719 13051,9732C13028,9739 12971,9741 12882,9736C12772,9731 12733,9733 12666,9747C12594,9763 12580,9770 12540,9810C12496,9854 12444,9947 12398,10065C12356,10174 12370,10322 12427,10372C12453,10395 12506,10420 12529,10420C12560,10420 12632,10463 12641,10487C12646,10500 12647,10545 12643,10589C12637,10675 12621,10704 12567,10728C12546,10737 12399,10741 11992,10744C11691,10746 11424,10744 11398,10741ZM13609,9205L13642,9197L13636,9141C13629,9065 13620,9019 13610,8995C13605,8984 13599,8955 13595,8930C13591,8905 13584,8863 13579,8835C13574,8808 13565,8760 13560,8730C13556,8700 13546,8650 13540,8620C13520,8530 13501,8428 13479,8303C13474,8274 13466,8225 13460,8195C13455,8165 13446,8116 13441,8088C13436,8059 13426,8015 13420,7990C13414,7965 13407,7926 13403,7903C13397,7861 13369,7823 13352,7834C13347,7837 13328,7877 13309,7922C13291,7968 13269,8016 13260,8030C13243,8054 13229,8090 13224,8119C13222,8126 13212,8151 13201,8174C13190,8196 13167,8251 13149,8295C13132,8339 13112,8389 13105,8405C13097,8422 13084,8455 13074,8480C13064,8505 13054,8527 13050,8530C13047,8533 13031,8567 13016,8605C12968,8722 12959,8742 12928,8810C12911,8846 12892,8889 12885,8905C12878,8922 12865,8951 12857,8970C12849,8989 12838,9016 12832,9030C12827,9044 12808,9086 12790,9123C12772,9160 12760,9193 12763,9196C12782,9215 13529,9223 13609,9205Z" style="fill:rgb(255,249,232);fill-rule:nonzero;"/>
                        <path id="pvEFHiOvD" d="M18112,10742C18087,10740 18067,10733 18064,10725C18061,10717 18053,10713 18046,10716C18020,10726 17997,10670 17998,10598C18000,10518 18025,10469 18080,10444C18227,10376 18253,10354 18290,10255C18300,10230 18318,10139 18326,10080C18329,10055 18336,10010 18340,9980C18345,9950 18353,9891 18359,9850C18364,9809 18374,9744 18380,9705C18386,9667 18395,9600 18400,9558C18405,9515 18412,9475 18416,9469C18420,9462 18424,9436 18425,9411C18427,9361 18454,9169 18471,9080C18477,9050 18483,9012 18485,8995C18487,8979 18494,8918 18501,8860C18519,8715 18518,8639 18497,8607C18488,8592 18454,8563 18421,8541C18336,8483 18313,8409 18357,8330C18380,8289 18416,8269 18485,8259C18513,8254 18555,8247 18580,8241C18622,8232 18642,8227 18748,8201C18768,8196 18803,8186 18825,8180C18847,8174 18881,8165 18900,8161C18919,8156 18955,8146 18980,8138C19005,8130 19059,8112 19100,8100C19141,8087 19179,8073 19185,8068C19190,8064 19203,8060 19215,8060C19227,8060 19241,8055 19248,8048C19254,8042 19288,8036 19324,8036C19380,8035 19391,8038 19409,8059C19420,8072 19427,8087 19424,8091C19421,8096 19424,8100 19431,8100C19444,8100 19439,8173 19419,8280C19413,8310 19407,8358 19405,8385C19403,8413 19399,8460 19397,8490C19394,8520 19387,8564 19381,8588C19374,8611 19371,8634 19374,8638C19376,8642 19370,8679 19358,8720C19347,8761 19337,8827 19335,8867C19334,8906 19327,8954 19321,8973C19305,9022 19282,9170 19291,9170C19295,9170 19290,9196 19280,9228C19271,9259 19260,9328 19256,9380C19252,9432 19243,9495 19235,9520C19228,9545 19219,9603 19215,9650C19211,9697 19202,9761 19193,9793C19185,9825 19177,9886 19176,9928C19174,9976 19167,10019 19156,10042C19130,10096 19129,10269 19154,10325C19172,10364 19243,10440 19263,10440C19288,10440 19299,10478 19300,10558C19300,10663 19285,10694 19222,10722C19176,10743 19163,10744 18665,10744C18385,10745 18136,10744 18112,10742Z" style="fill:rgb(255,249,232);fill-rule:nonzero;"/>
                        <path id="p2OjweCmr" d="M19565,10742C19484,10734 19440,10681 19440,10593C19440,10542 19463,10480 19482,10480C19488,10480 19491,10477 19487,10474C19478,10465 19501,10445 19551,10420C19630,10381 19664,10326 19688,10200C19694,10170 19703,10121 19709,10092C19715,10062 19720,10024 19720,10006C19720,9988 19723,9971 19726,9967C19729,9964 19734,9933 19736,9898C19738,9863 19744,9815 19750,9790C19755,9765 19769,9675 19780,9590C19791,9505 19805,9410 19810,9380C19815,9350 19825,9283 19831,9233C19838,9182 19848,9140 19853,9140C19858,9140 19860,9133 19857,9125C19853,9117 19857,9065 19865,9008C19873,8951 19885,8871 19890,8830C19896,8789 19905,8733 19910,8705C19915,8678 19922,8635 19926,8610C19929,8585 19936,8536 19941,8500C19946,8464 19955,8406 19959,8370C19964,8334 19973,8272 19979,8233C19985,8193 19995,8127 20001,8088C20007,8048 20015,7988 20020,7955C20094,7455 20098,7405 20064,7338C20050,7311 20007,7275 19960,7251C19922,7232 19906,7218 19891,7187C19872,7152 19871,7061 19888,7029C19905,6998 19975,6967 20070,6950C20111,6943 20150,6934 20155,6930C20161,6926 20181,6920 20200,6917C20219,6914 20255,6907 20280,6901C20305,6895 20348,6885 20375,6880C20422,6870 20440,6866 20550,6841C20575,6835 20621,6824 20653,6815C20741,6792 20899,6795 20954,6821C21015,6849 21035,6876 21049,6944C21058,6992 21057,7014 21045,7059C21028,7128 21015,7208 21018,7236C21019,7247 21013,7277 21003,7301C20987,7344 20974,7435 20965,7575C20962,7614 20956,7658 20950,7674C20945,7690 20940,7724 20940,7750C20940,7776 20933,7817 20924,7841C20916,7865 20909,7907 20909,7934C20908,7962 20904,7994 20900,8006C20890,8030 20870,8166 20864,8245C20862,8273 20859,8309 20857,8325C20856,8342 20847,8389 20838,8430C20820,8509 20798,8677 20799,8721C20800,8735 20793,8766 20785,8789C20777,8812 20773,8843 20776,8859C20779,8875 20777,8898 20770,8910C20763,8922 20758,8949 20758,8969C20759,8989 20754,9021 20748,9040C20742,9059 20737,9088 20738,9105C20739,9121 20733,9158 20725,9185C20717,9213 20711,9251 20711,9270C20712,9289 20707,9317 20702,9331C20696,9346 20694,9367 20697,9379C20700,9390 20696,9417 20687,9437C20675,9470 20662,9556 20655,9665C20654,9682 20646,9730 20636,9772C20627,9815 20619,9871 20619,9897C20618,9924 20611,9961 20603,9980C20595,10000 20591,10028 20595,10046C20598,10063 20594,10104 20585,10136C20572,10188 20572,10200 20586,10257C20594,10291 20599,10324 20596,10329C20593,10334 20597,10340 20605,10344C20613,10347 20620,10354 20620,10360C20620,10376 20640,10394 20677,10414C20731,10442 20750,10475 20750,10544C20750,10657 20724,10705 20648,10729C20622,10738 20462,10742 20103,10743C19824,10744 19582,10744 19565,10742Z" style="fill:rgb(255,249,232);fill-rule:nonzero;"/>
                        <path id="p1AmemKbZD" d="M21049,10742C20986,10738 20947,10701 20930,10631C20919,10585 20920,10574 20936,10537C20961,10479 20985,10454 21049,10422C21161,10367 21203,10298 21230,10130C21236,10089 21246,10036 21251,10013C21256,9990 21260,9952 21260,9928C21260,9868 21278,9798 21300,9655C21306,9617 21315,9558 21320,9525C21325,9492 21334,9434 21340,9395C21346,9357 21355,9291 21361,9250C21367,9209 21376,9146 21382,9110C21387,9074 21396,9016 21401,8980C21406,8944 21414,8886 21419,8850C21442,8686 21443,8669 21429,8627C21416,8585 21372,8535 21340,8525C21319,8518 21280,8450 21280,8419C21280,8337 21339,8271 21425,8256C21475,8247 21543,8232 21585,8220C21607,8214 21641,8205 21660,8200C21679,8195 21713,8186 21735,8180C21757,8174 21791,8165 21810,8161C21829,8156 21897,8136 21960,8115C22183,8044 22215,8035 22262,8035C22294,8035 22317,8042 22337,8056C22363,8075 22365,8084 22370,8156C22375,8216 22372,8249 22358,8294C22348,8326 22339,8387 22338,8429C22337,8471 22331,8522 22324,8543C22317,8563 22313,8587 22316,8595C22319,8603 22314,8632 22305,8660C22296,8688 22290,8726 22293,8743C22295,8760 22291,8788 22285,8805C22272,8834 22261,8907 22255,8993C22253,9016 22247,9067 22241,9105C22235,9144 22226,9209 22221,9250C22216,9291 22207,9337 22201,9351C22196,9366 22194,9387 22196,9397C22199,9408 22191,9447 22179,9485C22165,9530 22161,9555 22168,9558C22175,9560 22174,9573 22165,9601C22157,9623 22153,9647 22156,9655C22159,9663 22152,9700 22140,9737C22127,9778 22122,9806 22128,9808C22135,9810 22131,9837 22120,9878C22108,9922 22105,9947 22112,9951C22119,9955 22119,9964 22111,9978C22105,9989 22100,10014 22100,10034C22100,10053 22093,10099 22084,10137C22066,10214 22070,10262 22100,10342C22119,10392 22124,10398 22187,10431L22255,10466L22260,10550C22269,10700 22247,10718 22046,10731C21908,10739 21139,10748 21049,10742Z" style="fill:rgb(255,249,232);fill-rule:nonzero;"/>
                        <path id="prPRiRqlV" d="M10001,9681C9959,9676 9943,9668 9925,9646C9912,9630 9900,9607 9898,9595C9892,9566 9904,9439 9925,9310C9945,9186 9972,9131 10027,9104C10063,9086 10097,9085 10735,9087C11104,9088 11433,9092 11466,9095C11508,9099 11535,9108 11550,9122C11573,9144 11573,9138 11557,9370C11552,9436 11523,9553 11499,9604C11462,9683 11490,9679 10958,9680C10698,9680 10388,9682 10270,9684C10152,9687 10031,9685 10001,9681Z" style="fill:rgb(255,249,232);fill-rule:nonzero;"/>
                        <path id="pPeqhT1pu" d="M6525,7783C6406,7768 6256,7666 6215,7574C6206,7553 6194,7528 6190,7519C6174,7489 6168,7337 6180,7275C6200,7169 6202,7160 6211,7160C6216,7160 6220,7154 6220,7146C6220,7115 6287,7022 6360,6950C6432,6880 6525,6819 6561,6820C6570,6820 6580,6817 6584,6813C6612,6785 6766,6772 6848,6791C6964,6817 7088,6908 7129,6996C7136,7012 7146,7033 7151,7043C7164,7068 7182,7205 7180,7269C7179,7300 7171,7339 7159,7361C7149,7382 7140,7404 7140,7409C7140,7442 7079,7543 7027,7598C6954,7673 6810,7760 6756,7760C6738,7760 6703,7767 6680,7775C6640,7789 6592,7792 6525,7783Z" style="fill:rgb(255,249,232);fill-rule:nonzero;"/>
                        <path id="p197S1PWtb" d="M18883,7764C18810,7742 18766,7717 18715,7669C18598,7558 18565,7391 18618,7187C18641,7098 18736,6969 18833,6892C18866,6867 19006,6800 19027,6800C19039,6800 19071,6795 19099,6788C19169,6772 19302,6791 19371,6828C19460,6875 19542,6964 19567,7040C19597,7130 19604,7198 19590,7252C19583,7281 19576,7311 19575,7320C19570,7368 19524,7467 19471,7544C19400,7645 19262,7739 19150,7762C19078,7777 18929,7778 18883,7764Z" style="fill:rgb(255,249,232);fill-rule:nonzero;"/>
                        <path id="pMUJsQ1BL" d="M21820,7768C21795,7763 21771,7754 21766,7749C21760,7744 21750,7740 21742,7740C21727,7740 21657,7689 21626,7655C21534,7555 21497,7382 21535,7233C21551,7168 21599,7060 21612,7060C21616,7060 21620,7053 21620,7044C21620,7022 21768,6879 21815,6855C21837,6844 21857,6832 21860,6828C21863,6824 21900,6812 21942,6801C22068,6767 22207,6777 22301,6826C22361,6856 22437,6939 22471,7009C22502,7072 22503,7081 22504,7196C22505,7326 22508,7316 22429,7485C22383,7585 22240,7712 22145,7737C22123,7743 22079,7755 22047,7764C21983,7782 21890,7783 21820,7768Z" style="fill:rgb(255,249,232);fill-rule:nonzero;"/>
                    </g>
                </g>
            </g>
        </g>
    </g>
</svg>
